# xmcd
#
# Track frame offsets: 
#        183
#        8798
#        22058
#        35925
#        49570
#        57770
#        68965
#        94183
#        107080
#        119733
#        131745
#        148523
#        159370
#
# Disc length: 2375 seconds
#
# Revision: 2
# Processed by: cddbd v1.5.2PL0 Copyright (c) Steve Scherf et al.
# Submitted via: ExactAudioCopy v0.90b4
#
DISCID=b909450d
DTITLE=The Jimi Hendrix Experience - Axis: Bold As Love
DYEAR=1967
DGENRE=Rock
TTITLE0=Exp
TTITLE1=Up From The Skies
TTITLE2=Spanish Castle Magic
TTITLE3=Wait Until Tomorrow
TTITLE4=Ain't No Telling
TTITLE5=Little Wing
TTITLE6=If 6 Was 9
TTITLE7=You Got Me Floatin'
TTITLE8=Castles Made Of Sand
TTITLE9=She's So Fine
TTITLE10=One Rainy Wish
TTITLE11=Little Miss Lover
TTITLE12=Bold As Love
EXTD=
EXTT0=
EXTT1=
EXTT2=
EXTT3=
EXTT4=
EXTT5=
EXTT6=
EXTT7=
EXTT8=
EXTT9=
EXTT10=
EXTT11=
EXTT12=
PLAYORDER=
